<svg width="23" height="23" viewBox="0 0 23 23" fill="none" xmlns="http://www.w3.org/2000/svg">
<path fill-rule="evenodd" clip-rule="evenodd" d="M10.998 0.523926C4.92398 0.523926 0 5.44791 0 11.5219C0 17.596 4.92397 22.52 10.998 22.52H11.9544C11.9714 22.52 11.9885 22.5199 12.0055 22.5198H19.6164C20.9369 22.5198 22.0073 21.4494 22.0073 20.129C22.0073 19.2407 21.5229 18.4656 20.8038 18.0533C22.1541 16.2269 22.9524 13.9676 22.9524 11.5219C22.9524 5.44791 18.0284 0.523926 11.9544 0.523926H10.998Z" fill="#6D747E"/>
<rect x="4.79297" y="7.21826" width="8.36806" height="3.34722" rx="1.67361" fill="white"/>
<rect x="4.79297" y="12.9565" width="12.5521" height="3.34722" rx="1.67361" fill="white"/>
<rect x="14.3564" y="7.21826" width="3.34722" height="3.34722" rx="1.67361" fill="white"/>
</svg>
